<svg width="14" height="13" viewBox="0 0 14 13" fill="none" xmlns="http://www.w3.org/2000/svg">
<g clip-path="url(#clip0_1_383)">
<path d="M9 0H5C4.1712 0 3.4992 0.672 3.4992 1.5008V13.0016H10.4992V1.5008C10.4992 0.672 9.8272 0 8.9984 0H9ZM4.4992 2.4992V1.4992C4.4992 1.2224 4.7232 1 4.9984 1H8.9984C9.1312 1 9.2576 1.0528 9.352 1.1456C9.4464 1.24 9.4976 1.3664 9.4976 1.4992V2.4992H4.4976H4.4992ZM1.5008 2.4992H2.5008V12.9984H1.5008C0.6736 12.9952 0.0032 12.3264 0 11.4976V4C0.0032 3.1728 0.672 2.5024 1.5008 2.4992ZM14 4V11.5008C13.9968 12.328 13.328 12.9984 12.4992 13.0016H11.4992V2.4992H12.4992C13.3264 2.5024 13.9968 3.1712 14 4Z" fill="#A8B6C8"/>
</g>
<defs>
<clipPath id="clip0_1_383">
<rect width="14" height="13" fill="white"/>
</clipPath>
</defs>
</svg>
