<svg width="14" height="14" viewBox="0 0 14 14" fill="none" xmlns="http://www.w3.org/2000/svg">
<path d="M9.02952 1.49617C9.08046 1.26694 8.96843 1.03253 8.75807 0.928189C8.54771 0.823844 8.2933 0.876486 8.14162 1.05574L2.52703 7.69117C2.39865 7.84289 2.37001 8.05533 2.45363 8.23562C2.53726 8.41592 2.71793 8.53128 2.91667 8.53128H5.8533L4.9705 12.5039C4.91956 12.7331 5.03159 12.9675 5.24195 13.0719C5.45231 13.1762 5.70672 13.1236 5.8584 12.9443L11.473 6.3089C11.6014 6.15718 11.63 5.94474 11.5464 5.76444C11.4628 5.58414 11.2821 5.46878 11.0833 5.46878H8.14672L9.02952 1.49617Z" fill="#A8B6C8"/>
</svg>
