<svg width="489" height="8" viewBox="0 0 489 8" fill="none" xmlns="http://www.w3.org/2000/svg">
<path d="M1.44574 3.5C1.1696 3.5 0.94574 3.72386 0.94574 4C0.94574 4.27614 1.1696 4.5 1.44574 4.5L1.44574 3.5ZM488.354 4.35361C488.549 4.15835 488.549 3.84177 488.354 3.64651L485.172 0.464525C484.976 0.269262 484.66 0.269262 484.464 0.464525C484.269 0.659787 484.269 0.976369 484.464 1.17163L487.293 4.00006L484.464 6.82849C484.269 7.02375 484.269 7.34033 484.464 7.53559C484.66 7.73085 484.976 7.73085 485.172 7.53559L488.354 4.35361ZM1.44574 4L1.44574 4.5L488 4.50006L488 4.00006L488 3.50006L1.44574 3.5L1.44574 4Z" fill="#DADFE7"/>
<ellipse cx="2" cy="1.44593" rx="2" ry="1.44593" transform="matrix(-2.18557e-07 1 1 2.18557e-07 0 2)" fill="#A8B6C8"/>
</svg>
