<svg width="20" height="20" viewBox="0 0 20 20" fill="none" xmlns="http://www.w3.org/2000/svg">
<g id="Icon / Globe">
<path id="Union" opacity="0.55" fill-rule="evenodd" clip-rule="evenodd" d="M6.57059 14.25C6.97085 15.7064 7.5718 17.0797 8.34184 18.3384C5.90451 17.8564 3.84178 16.3324 2.63715 14.25H6.57059ZM8.13281 14.25C8.56107 15.6491 9.19525 16.9582 10 18.142C10.8048 16.9582 11.439 15.6491 11.8672 14.25H8.13281ZM12.2396 12.75H7.76043C7.5895 11.8596 7.5 10.9403 7.5 10C7.5 9.05975 7.5895 8.1404 7.76043 7.25H12.2396C12.4105 8.1404 12.5 9.05975 12.5 10C12.5 10.9403 12.4105 11.8596 12.2396 12.75ZM13.4294 14.25C13.0292 15.7064 12.4282 17.0797 11.6582 18.3384C14.0955 17.8564 16.1582 16.3324 17.3629 14.25H13.4294ZM18.0453 12.75H13.7646C13.9194 11.8565 14 10.9377 14 10C14 9.06231 13.9194 8.14345 13.7646 7.25H18.0453C18.3401 8.11256 18.5 9.0376 18.5 10C18.5 10.9624 18.3401 11.8874 18.0453 12.75ZM6.23543 12.75H1.9547C1.65994 11.8874 1.5 10.9624 1.5 10C1.5 9.0376 1.65994 8.11256 1.9547 7.25H6.23543C6.08066 8.14345 6 9.06231 6 10C6 10.9377 6.08066 11.8565 6.23543 12.75ZM6.57059 5.75H2.63715C3.84178 3.66756 5.90451 2.14361 8.34184 1.66165C7.5718 2.92027 6.97085 4.29359 6.57059 5.75ZM10 1.85804C9.19525 3.04183 8.56107 4.35093 8.13281 5.75H11.8672C11.439 4.35093 10.8048 3.04183 10 1.85804ZM13.4294 5.75H17.3629C16.1582 3.66756 14.0955 2.14361 11.6582 1.66165C12.4282 2.92028 13.0292 4.29359 13.4294 5.75ZM9.50041 0.0122631L9.4994 0.0123122C4.20913 0.27313 0 4.64502 0 10C0 15.0452 3.73624 19.2178 8.59279 19.9018L8.64167 19.9085C8.92401 19.9469 9.21008 19.9734 9.4994 19.9877C9.66523 19.9959 9.83214 20 10 20H10L10.0143 20C10.1774 19.9998 10.3395 19.9956 10.5006 19.9877L10.5006 19.9877C10.8037 19.9727 11.1032 19.9443 11.3985 19.903L11.4072 19.9018C16.2638 19.2178 20 15.0452 20 10C20 4.95479 16.2638 0.782229 11.4072 0.0982414C11.1091 0.0562456 10.8066 0.027401 10.5006 0.0123131C10.3348 0.00413647 10.1679 0 10 0L9.92944 0.000243715C9.7914 0.00119757 9.65403 0.00494829 9.51737 0.011442L9.51638 0.0114899L9.50041 0.0122631Z" fill="#12192B"/>
</g>
</svg>
