<svg width="40" height="40" viewBox="0 0 40 40" fill="none" xmlns="http://www.w3.org/2000/svg">
<rect width="40" height="40" rx="20" fill="white"/>
<rect x="0.25" y="0.25" width="39.5" height="39.5" rx="19.75" stroke="black" stroke-opacity="0.05" stroke-width="0.5"/>
<path d="M24.3355 12.7441H16.2578V27.2565H24.3355V12.7441Z" fill="#FF5A00"/>
<path d="M16.7963 20.0003C16.7963 17.0518 18.1824 14.435 20.3094 12.7441C18.744 11.5134 16.7694 10.7695 14.6155 10.7695C9.51323 10.7695 5.38477 14.898 5.38477 20.0003C5.38477 25.1026 9.51323 29.2311 14.6155 29.2311C16.7694 29.2311 18.744 28.4872 20.3094 27.2565C18.1794 25.5895 16.7963 22.9488 16.7963 20.0003Z" fill="#EB001B"/>
<path d="M35.2332 20.0003C35.2332 25.1026 31.1047 29.2311 26.0024 29.2311C23.8486 29.2311 21.8739 28.4872 20.3086 27.2565C22.4624 25.5627 23.8217 22.9488 23.8217 20.0003C23.8217 17.0518 22.4356 14.435 20.3086 12.7441C21.871 11.5134 23.8456 10.7695 25.9994 10.7695C31.1047 10.7695 35.2332 14.9249 35.2332 20.0003Z" fill="#F79E1B"/>
</svg>
