<svg width="77" height="87" viewBox="0 0 77 87" fill="none" xmlns="http://www.w3.org/2000/svg">
<g id="Mic">
<g id="Union" filter="url(#filter0_dddddd_7550_2517)">
<path fill-rule="evenodd" clip-rule="evenodd" d="M36 38C34.3431 38 33 39.3431 33 41V46.5C33 48.1569 34.3431 49.5 36 49.5C37.6569 49.5 39 48.1569 39 46.5V41C39 39.3431 37.6569 38 36 38ZM30.25 46V46.5C30.25 49.4214 32.4287 51.834 35.25 52.2015V56H36.75V52.2015C39.5713 51.834 41.75 49.4214 41.75 46.5V46H40.25V46.5C40.25 48.8472 38.3472 50.75 36 50.75C33.6528 50.75 31.75 48.8472 31.75 46.5V46H30.25Z" fill="white"/>
</g>
<g id="Union_2" filter="url(#filter1_dddddd_7550_2517)">
<path fill-rule="evenodd" clip-rule="evenodd" d="M44.6903 33.2283C44.4516 33.1601 44.3323 33.126 44.232 33.0655C44.1102 32.9919 44.0081 32.8898 43.9345 32.768C43.874 32.6677 43.8399 32.5484 43.7717 32.3097C43.5611 31.5726 43.4558 31.2041 43.3047 31.097C43.1221 30.9677 42.8779 30.9677 42.6953 31.097C42.5442 31.2041 42.4389 31.5726 42.2283 32.3097C42.1601 32.5484 42.126 32.6677 42.0655 32.768C41.9919 32.8898 41.8898 32.9919 41.768 33.0655C41.6677 33.126 41.5484 33.1601 41.3097 33.2283C40.5726 33.4389 40.2041 33.5442 40.097 33.6953C39.9677 33.8779 39.9677 34.1221 40.097 34.3047C40.2041 34.4558 40.5726 34.5611 41.3097 34.7717C41.5484 34.8399 41.6677 34.874 41.768 34.9345C41.8898 35.0081 41.9919 35.1102 42.0655 35.232C42.126 35.3323 42.1601 35.4516 42.2283 35.6903C42.4389 36.4274 42.5442 36.7959 42.6953 36.903C42.8779 37.0323 43.1221 37.0323 43.3047 36.903C43.4558 36.7959 43.5611 36.4274 43.7717 35.6903C43.8399 35.4516 43.874 35.3323 43.9345 35.232C44.0081 35.1102 44.1102 35.0081 44.232 34.9345C44.3323 34.874 44.4516 34.8399 44.6903 34.7717C45.4274 34.5611 45.7959 34.4558 45.903 34.3047C46.0323 34.1221 46.0323 33.8779 45.903 33.6953C45.7959 33.5442 45.4274 33.4389 44.6903 33.2283Z" fill="white"/>
</g>
</g>
<defs>
<filter id="filter0_dddddd_7550_2517" x="0.0478001" y="7.7978" width="71.9044" height="78.4044" filterUnits="userSpaceOnUse" color-interpolation-filters="sRGB">
<feFlood flood-opacity="0" result="BackgroundImageFix"/>
<feColorMatrix in="SourceAlpha" type="matrix" values="0 0 0 0 0 0 0 0 0 0 0 0 0 0 0 0 0 0 127 0" result="hardAlpha"/>
<feOffset/>
<feGaussianBlur stdDeviation="0.35955"/>
<feColorMatrix type="matrix" values="0 0 0 0 0.886275 0 0 0 0 0.984314 0 0 0 0 0.996078 0 0 0 1 0"/>
<feBlend mode="normal" in2="BackgroundImageFix" result="effect1_dropShadow_7550_2517"/>
<feColorMatrix in="SourceAlpha" type="matrix" values="0 0 0 0 0 0 0 0 0 0 0 0 0 0 0 0 0 0 127 0" result="hardAlpha"/>
<feOffset/>
<feGaussianBlur stdDeviation="0.7191"/>
<feColorMatrix type="matrix" values="0 0 0 0 0.819608 0 0 0 0 0.92549 0 0 0 0 0.992157 0 0 0 1 0"/>
<feBlend mode="normal" in2="effect1_dropShadow_7550_2517" result="effect2_dropShadow_7550_2517"/>
<feColorMatrix in="SourceAlpha" type="matrix" values="0 0 0 0 0 0 0 0 0 0 0 0 0 0 0 0 0 0 127 0" result="hardAlpha"/>
<feOffset/>
<feGaussianBlur stdDeviation="2.51685"/>
<feColorMatrix type="matrix" values="0 0 0 0 0.643137 0 0 0 0 0.776471 0 0 0 0 0.984314 0 0 0 1 0"/>
<feBlend mode="normal" in2="effect2_dropShadow_7550_2517" result="effect3_dropShadow_7550_2517"/>
<feColorMatrix in="SourceAlpha" type="matrix" values="0 0 0 0 0 0 0 0 0 0 0 0 0 0 0 0 0 0 127 0" result="hardAlpha"/>
<feOffset/>
<feGaussianBlur stdDeviation="5.0337"/>
<feColorMatrix type="matrix" values="0 0 0 0 0.505882 0 0 0 0 0.639216 0 0 0 0 0.945098 0 0 0 1 0"/>
<feBlend mode="normal" in2="effect3_dropShadow_7550_2517" result="effect4_dropShadow_7550_2517"/>
<feColorMatrix in="SourceAlpha" type="matrix" values="0 0 0 0 0 0 0 0 0 0 0 0 0 0 0 0 0 0 127 0" result="hardAlpha"/>
<feOffset/>
<feGaussianBlur stdDeviation="8.6292"/>
<feColorMatrix type="matrix" values="0 0 0 0 0.32549 0 0 0 0 0.45098 0 0 0 0 0.866667 0 0 0 1 0"/>
<feBlend mode="normal" in2="effect4_dropShadow_7550_2517" result="effect5_dropShadow_7550_2517"/>
<feColorMatrix in="SourceAlpha" type="matrix" values="0 0 0 0 0 0 0 0 0 0 0 0 0 0 0 0 0 0 127 0" result="hardAlpha"/>
<feOffset/>
<feGaussianBlur stdDeviation="15.1011"/>
<feColorMatrix type="matrix" values="0 0 0 0 0.145098 0 0 0 0 0.192157 0 0 0 0 0.572549 0 0 0 1 0"/>
<feBlend mode="normal" in2="effect5_dropShadow_7550_2517" result="effect6_dropShadow_7550_2517"/>
<feBlend mode="normal" in="SourceGraphic" in2="effect6_dropShadow_7550_2517" result="shape"/>
</filter>
<filter id="filter1_dddddd_7550_2517" x="9.7978" y="0.7978" width="66.4044" height="66.4044" filterUnits="userSpaceOnUse" color-interpolation-filters="sRGB">
<feFlood flood-opacity="0" result="BackgroundImageFix"/>
<feColorMatrix in="SourceAlpha" type="matrix" values="0 0 0 0 0 0 0 0 0 0 0 0 0 0 0 0 0 0 127 0" result="hardAlpha"/>
<feOffset/>
<feGaussianBlur stdDeviation="0.35955"/>
<feColorMatrix type="matrix" values="0 0 0 0 0.886275 0 0 0 0 0.984314 0 0 0 0 0.996078 0 0 0 1 0"/>
<feBlend mode="normal" in2="BackgroundImageFix" result="effect1_dropShadow_7550_2517"/>
<feColorMatrix in="SourceAlpha" type="matrix" values="0 0 0 0 0 0 0 0 0 0 0 0 0 0 0 0 0 0 127 0" result="hardAlpha"/>
<feOffset/>
<feGaussianBlur stdDeviation="0.7191"/>
<feColorMatrix type="matrix" values="0 0 0 0 0.819608 0 0 0 0 0.92549 0 0 0 0 0.992157 0 0 0 1 0"/>
<feBlend mode="normal" in2="effect1_dropShadow_7550_2517" result="effect2_dropShadow_7550_2517"/>
<feColorMatrix in="SourceAlpha" type="matrix" values="0 0 0 0 0 0 0 0 0 0 0 0 0 0 0 0 0 0 127 0" result="hardAlpha"/>
<feOffset/>
<feGaussianBlur stdDeviation="2.51685"/>
<feColorMatrix type="matrix" values="0 0 0 0 0.643137 0 0 0 0 0.776471 0 0 0 0 0.984314 0 0 0 1 0"/>
<feBlend mode="normal" in2="effect2_dropShadow_7550_2517" result="effect3_dropShadow_7550_2517"/>
<feColorMatrix in="SourceAlpha" type="matrix" values="0 0 0 0 0 0 0 0 0 0 0 0 0 0 0 0 0 0 127 0" result="hardAlpha"/>
<feOffset/>
<feGaussianBlur stdDeviation="5.0337"/>
<feColorMatrix type="matrix" values="0 0 0 0 0.505882 0 0 0 0 0.639216 0 0 0 0 0.945098 0 0 0 1 0"/>
<feBlend mode="normal" in2="effect3_dropShadow_7550_2517" result="effect4_dropShadow_7550_2517"/>
<feColorMatrix in="SourceAlpha" type="matrix" values="0 0 0 0 0 0 0 0 0 0 0 0 0 0 0 0 0 0 127 0" result="hardAlpha"/>
<feOffset/>
<feGaussianBlur stdDeviation="8.6292"/>
<feColorMatrix type="matrix" values="0 0 0 0 0.32549 0 0 0 0 0.45098 0 0 0 0 0.866667 0 0 0 1 0"/>
<feBlend mode="normal" in2="effect4_dropShadow_7550_2517" result="effect5_dropShadow_7550_2517"/>
<feColorMatrix in="SourceAlpha" type="matrix" values="0 0 0 0 0 0 0 0 0 0 0 0 0 0 0 0 0 0 127 0" result="hardAlpha"/>
<feOffset/>
<feGaussianBlur stdDeviation="15.1011"/>
<feColorMatrix type="matrix" values="0 0 0 0 0.145098 0 0 0 0 0.192157 0 0 0 0 0.572549 0 0 0 1 0"/>
<feBlend mode="normal" in2="effect5_dropShadow_7550_2517" result="effect6_dropShadow_7550_2517"/>
<feBlend mode="normal" in="SourceGraphic" in2="effect6_dropShadow_7550_2517" result="shape"/>
</filter>
</defs>
</svg>
