<svg width="16" height="16" viewBox="0 0 16 16" fill="none" xmlns="http://www.w3.org/2000/svg">
<path fill-rule="evenodd" clip-rule="evenodd" d="M2.6645 6.99951H10.6678C11.0362 6.99951 11.3348 7.29811 11.3348 7.66646V9.66729C11.3348 11.8773 9.54317 13.669 7.33311 13.669H5.99923C3.78917 13.669 1.99756 11.8773 1.99756 9.66729V7.66646C1.99756 7.29811 2.29616 6.99951 2.6645 6.99951Z" stroke="#35385A" stroke-linecap="round" stroke-linejoin="round"/>
<path d="M9.00046 4.99878C8.55584 4.53192 8.55584 3.79829 9.00046 3.33142C9.44509 2.86456 9.44509 2.13092 9.00046 1.66406" stroke="#35385A" stroke-linecap="round" stroke-linejoin="round"/>
<path d="M6.66599 4.99878C6.22137 4.53192 6.22137 3.79829 6.66599 3.33142C7.11062 2.86456 7.11062 2.13092 6.66599 1.66406" stroke="#35385A" stroke-linecap="round" stroke-linejoin="round"/>
<path d="M4.33201 4.99878C3.88738 4.53193 3.88738 3.79828 4.33201 3.33142C4.77664 2.86456 4.77664 2.13092 4.33201 1.66406" stroke="#35385A" stroke-linecap="round" stroke-linejoin="round"/>
<path d="M10.7532 11.7448L11.9842 11.4631C13.1652 11.1928 14.0027 10.1421 14.0027 8.93056V8.93056C14.0027 8.41841 13.7992 7.92724 13.4371 7.5651C13.0749 7.20296 12.5838 6.99951 12.0716 6.99951H10.3345" stroke="#35385A" stroke-linecap="round" stroke-linejoin="round"/>
</svg>
