<svg width="186" height="40" viewBox="0 0 186 40" fill="none" xmlns="http://www.w3.org/2000/svg">
<path d="M0.270506 17.0002C0.176287 18.0017 0.133784 19.0067 0.136717 20.0012C0.133795 20.9952 0.176393 21.9994 0.270506 23.0002L2.13672 23.0002C6.46384 23.0002 9.4079 23.0067 11.6123 23.303C13.7303 23.5877 14.7112 24.0904 15.3789 24.7581C16.0465 25.4258 16.5492 26.4068 16.834 28.5247C17.1303 30.729 17.1367 33.6733 17.1367 38.0002L17.1367 39.8997C18.1383 39.9761 19.1427 40.0065 20.1367 39.9983C21.1307 40.0065 22.1351 39.9761 23.1367 39.8997L23.1367 38.0002C23.1367 33.8427 23.1428 30.4219 22.7803 27.7249C22.406 24.9416 21.5902 22.4831 19.6221 20.5149C17.6538 18.5467 15.1954 17.7309 12.4121 17.3567C9.71498 16.9941 6.29436 17.0002 2.13672 17.0002L0.270506 17.0002ZM20.1367 0.00121895C19.1427 -0.00694839 18.1383 0.0223717 17.1367 0.0988749L17.1367 1.99927C17.1367 6.15676 17.1306 9.57759 17.4932 12.2747C17.8674 15.0578 18.6834 17.5165 20.6514 19.4846C22.6195 21.4527 25.0782 22.2685 27.8613 22.6428C30.5584 23.0054 33.9792 22.9993 38.1367 22.9993L40.0029 22.9993C40.097 21.9987 40.1396 20.9949 40.1367 20.0012C40.1397 19.0064 40.0972 18.0011 40.0029 16.9993L38.1367 16.9993C33.8097 16.9993 30.8655 16.9929 28.6611 16.6965C26.5434 16.4117 25.5622 15.9091 24.8945 15.2415C24.227 14.5738 23.7242 13.5924 23.4395 11.4749C23.1432 9.27049 23.1367 6.32622 23.1367 1.99927L23.1367 0.099852C22.1351 0.0230805 21.1305 -0.00696811 20.1367 0.00121895Z" fill="url(#paint0_linear_17940_748)"/>
<path d="M56 20.042C56 16.682 56.588 13.826 57.764 11.474C58.94 9.122 60.536 7.33 62.552 6.098C64.568 4.866 66.85 4.25 69.398 4.25C71.862 4.25 73.878 4.67 75.446 5.51C77.042 6.322 78.288 7.47 79.184 8.954C80.108 10.438 80.78 12.146 81.2 14.078L77.42 14.708C77.084 13.224 76.608 11.964 75.992 10.928C75.376 9.864 74.536 9.052 73.472 8.492C72.436 7.904 71.078 7.61 69.398 7.61C67.41 7.61 65.716 8.128 64.316 9.164C62.916 10.2 61.852 11.656 61.124 13.532C60.396 15.38 60.032 17.536 60.032 20C60.032 22.464 60.396 24.634 61.124 26.51C61.852 28.358 62.916 29.8 64.316 30.836C65.744 31.872 67.452 32.39 69.44 32.39C71.288 32.39 72.758 32.082 73.85 31.466C74.97 30.85 75.824 29.996 76.412 28.904C77 27.812 77.406 26.552 77.63 25.124H81.62C81.396 27.14 80.794 28.96 79.814 30.584C78.862 32.18 77.518 33.44 75.782 34.364C74.074 35.288 71.946 35.75 69.398 35.75C66.654 35.75 64.274 35.134 62.258 33.902C60.27 32.642 58.73 30.85 57.638 28.526C56.546 26.174 56 23.346 56 20.042Z" fill="black"/>
<path d="M85.2304 24.2C85.2304 21.82 85.6644 19.776 86.5324 18.068C87.4004 16.332 88.6324 14.988 90.2284 14.036C91.8244 13.084 93.6864 12.608 95.8144 12.608C97.9984 12.608 99.8604 13.07 101.4 13.994C102.968 14.918 104.172 16.234 105.012 17.942C105.852 19.65 106.272 21.68 106.272 24.032C106.272 26.412 105.838 28.47 104.97 30.206C104.13 31.942 102.912 33.286 101.316 34.238C99.7484 35.19 97.8724 35.666 95.6884 35.666C92.3844 35.666 89.8084 34.644 87.9604 32.6C86.1404 30.556 85.2304 27.756 85.2304 24.2ZM89.0944 24.116C89.0944 26.608 89.6124 28.652 90.6484 30.248C91.6844 31.844 93.3784 32.642 95.7304 32.642C97.2984 32.642 98.5724 32.278 99.5524 31.55C100.532 30.822 101.246 29.814 101.694 28.526C102.17 27.21 102.408 25.726 102.408 24.074C102.408 21.582 101.876 19.552 100.812 17.984C99.7764 16.416 98.0824 15.632 95.7304 15.632C93.4064 15.632 91.7124 16.43 90.6484 18.026C89.6124 19.594 89.0944 21.624 89.0944 24.116Z" fill="black"/>
<path d="M128.767 27.014C128.767 26.23 128.627 25.502 128.347 24.83C128.067 24.13 127.535 23.528 126.751 23.024C125.967 22.492 124.819 22.1 123.307 21.848L119.527 21.176C117.567 20.812 115.887 20.322 114.487 19.706C113.115 19.062 112.065 18.166 111.337 17.018C110.609 15.87 110.245 14.372 110.245 12.524C110.245 10.676 110.735 9.136 111.715 7.904C112.695 6.672 114.011 5.762 115.663 5.174C117.343 4.558 119.219 4.25 121.291 4.25C123.279 4.25 124.931 4.474 126.247 4.922C127.591 5.342 128.669 5.93 129.481 6.686C130.321 7.414 130.965 8.24 131.413 9.164C131.889 10.088 132.225 11.04 132.421 12.02L128.809 12.734C128.501 11.586 128.067 10.634 127.507 9.878C126.975 9.094 126.219 8.506 125.239 8.114C124.287 7.722 122.999 7.526 121.375 7.526C119.555 7.526 118.113 7.75 117.049 8.198C116.013 8.618 115.271 9.192 114.823 9.92C114.375 10.648 114.151 11.474 114.151 12.398C114.151 13.854 114.543 14.96 115.327 15.716C116.139 16.472 117.581 17.046 119.653 17.438L123.853 18.194C126.961 18.754 129.243 19.72 130.699 21.092C132.155 22.464 132.883 24.466 132.883 27.098C132.883 28.694 132.477 30.15 131.665 31.466C130.853 32.754 129.635 33.79 128.011 34.574C126.387 35.358 124.343 35.75 121.879 35.75C118.351 35.75 115.495 35.022 113.311 33.566C111.127 32.082 109.881 29.716 109.573 26.468H113.437C113.773 28.54 114.599 30.052 115.915 31.004C117.259 31.956 119.247 32.432 121.879 32.432C123.643 32.432 125.029 32.194 126.037 31.718C127.045 31.214 127.745 30.556 128.137 29.744C128.557 28.904 128.767 27.994 128.767 27.014Z" fill="url(#paint1_linear_17940_748)"/>
<path d="M138.577 27.938V16.178H135.217V13.28H138.577V7.358H142.231V13.28H147.985V16.178H142.231V28.904C142.231 29.968 142.469 30.822 142.945 31.466C143.421 32.11 144.149 32.432 145.129 32.432C145.745 32.432 146.291 32.39 146.767 32.306C147.243 32.194 147.663 32.082 148.027 31.97L148.657 34.784C148.097 34.98 147.481 35.134 146.809 35.246C146.165 35.386 145.395 35.456 144.499 35.456C142.875 35.456 141.629 35.134 140.761 34.49C139.921 33.846 139.347 32.964 139.039 31.844C138.731 30.696 138.577 29.394 138.577 27.938Z" fill="url(#paint2_linear_17940_748)"/>
<path d="M150.277 28.988C150.277 27.504 150.585 26.3 151.201 25.376C151.845 24.452 152.685 23.724 153.721 23.192C154.785 22.66 155.975 22.282 157.291 22.058C158.635 21.834 159.993 21.694 161.365 21.638L165.103 21.512V20.672C165.103 18.824 164.711 17.494 163.927 16.682C163.143 15.87 161.869 15.464 160.105 15.464C158.369 15.464 157.095 15.758 156.283 16.346C155.471 16.906 154.939 17.69 154.687 18.698L151.369 18.32C151.761 16.332 152.699 14.89 154.183 13.994C155.667 13.07 157.683 12.608 160.231 12.608C163.367 12.608 165.565 13.336 166.825 14.792C168.085 16.248 168.715 18.278 168.715 20.882V34.994H165.187V32.012C164.403 32.964 163.409 33.79 162.205 34.49C161.001 35.162 159.503 35.498 157.711 35.498C155.527 35.498 153.735 34.966 152.335 33.902C150.963 32.81 150.277 31.172 150.277 28.988ZM154.015 28.904C154.015 29.996 154.337 30.878 154.981 31.55C155.653 32.194 156.745 32.516 158.257 32.516C160.301 32.516 161.953 32.012 163.213 31.004C164.473 29.996 165.103 28.512 165.103 26.552V24.116L161.617 24.242C159.657 24.298 158.117 24.522 156.997 24.914C155.905 25.278 155.135 25.796 154.687 26.468C154.239 27.112 154.015 27.924 154.015 28.904Z" fill="url(#paint3_linear_17940_748)"/>
<path d="M173.842 13.28H177.454V16.64C178.266 15.436 179.218 14.512 180.31 13.868C181.402 13.224 182.564 12.902 183.796 12.902C184.608 12.902 185.252 12.958 185.728 13.07L185.266 16.472C184.986 16.416 184.706 16.374 184.426 16.346C184.146 16.29 183.838 16.262 183.502 16.262C182.83 16.262 182.144 16.388 181.444 16.64C180.772 16.864 180.114 17.256 179.47 17.816C178.854 18.348 178.364 18.964 178 19.664C177.664 20.364 177.496 21.176 177.496 22.1V34.994H173.842V13.28Z" fill="url(#paint4_linear_17940_748)"/>
<defs>
<linearGradient id="paint0_linear_17940_748" x1="20.1371" y1="39.999" x2="20.1371" y2="-0.00073417" gradientUnits="userSpaceOnUse">
<stop stop-opacity="0.5"/>
<stop offset="1"/>
</linearGradient>
<linearGradient id="paint1_linear_17940_748" x1="120.864" y1="0.050001" x2="120.864" y2="35.75" gradientUnits="userSpaceOnUse">
<stop/>
<stop offset="1" stop-opacity="0.5"/>
</linearGradient>
<linearGradient id="paint2_linear_17940_748" x1="120.864" y1="0.050001" x2="120.864" y2="35.75" gradientUnits="userSpaceOnUse">
<stop/>
<stop offset="1" stop-opacity="0.5"/>
</linearGradient>
<linearGradient id="paint3_linear_17940_748" x1="120.864" y1="0.050001" x2="120.864" y2="35.75" gradientUnits="userSpaceOnUse">
<stop/>
<stop offset="1" stop-opacity="0.5"/>
</linearGradient>
<linearGradient id="paint4_linear_17940_748" x1="120.864" y1="0.050001" x2="120.864" y2="35.75" gradientUnits="userSpaceOnUse">
<stop/>
<stop offset="1" stop-opacity="0.5"/>
</linearGradient>
</defs>
</svg>
