<svg width="30" height="10" viewBox="0 0 30 10" fill="none" xmlns="http://www.w3.org/2000/svg">
<path d="M11.3336 0.171114L7.42562 9.53463H4.87594L2.9528 2.06212C2.83605 1.60186 2.73453 1.43324 2.37944 1.23933C1.7997 0.923487 0.842325 0.627159 0 0.443243L0.0572122 0.171114H4.16141C4.68456 0.171114 5.15485 0.520837 5.27363 1.12583L6.2893 6.54403L8.79949 0.170958H11.3336V0.171114ZM21.3237 6.47752C21.3339 4.0062 17.9208 3.87006 17.9443 2.76609C17.9516 2.43011 18.2701 2.07289 18.9674 1.98171C19.313 1.93628 20.2652 1.90162 21.3453 2.40075L21.7689 0.41514C21.1886 0.203589 20.4419 0 19.5128 0C17.1287 0 15.4509 1.27274 15.4367 3.0952C15.4213 4.4432 16.6343 5.19542 17.5481 5.64334C18.4882 6.10204 18.8037 6.39681 18.8001 6.80711C18.7934 7.4352 18.0503 7.71248 17.3558 7.72341C16.1435 7.74215 15.44 7.39399 14.8792 7.13216L14.442 9.18351C15.0056 9.44314 16.0458 9.66968 17.1243 9.68108C19.6583 9.68108 21.3159 8.42411 21.3237 6.47752ZM27.6192 9.53463H29.85L27.9028 0.171114H25.8437C25.3808 0.171114 24.9902 0.441837 24.8173 0.85807L21.1979 9.53463H23.7306L24.2334 8.13605H27.328L27.6192 9.53463ZM24.9279 6.21695L26.1974 2.7013L26.9281 6.21695H24.9279ZM14.7799 0.171114L12.7854 9.53463H10.3734L12.3687 0.171114H14.7799Z" fill="#1434CB"/>
</svg>
